<svg xmlns:xlink="http://www.w3.org/1999/xlink" xmlns="http://www.w3.org/2000/svg" width="1000.0" height="404.588607595">
  <desc>Created by CircuitLab https://www.circuitlab.com/</desc><g transform="matrix(3.16455696203,0,0,3.16455696203,-7199.36708861,-4266.29746835)">
    <path style="stroke-linejoin: round;" fill="#000000" stroke="#000000" d="M0,50L12,36L26,36Z" stroke-width="2" stroke-linejoin="round" transform="matrix(-1,0,0,1,2325,1350)"/>
    <path style="stroke-linejoin: round;" fill="#000000" stroke="#000000" d="M0,50L12,36L29.333333333333332,36Z" stroke-width="2" stroke-linejoin="round" transform="translate(2450,1425)"/>
    <text style="font-family: Arial; font-size: 16px; font-weight: bold; text-anchor: middle;" x="0" y="0" text-anchor="middle" stroke="none" fill="#000000" transform="translate(2375,1362.05)">
      <tspan dy="-2.3999999999999995">R1</tspan>
      <tspan dy="19.2" x="0">3.3 kΩ</tspan>
    </text>
    <path style="stroke-linecap: round; stroke-miterlimit: 6;" fill="none" stroke="#000000" d="M25,20.5L25,0" stroke-width="2" stroke-linecap="round" stroke-miterlimit="6" transform="matrix(0,-1,1,0,2325,1425)"/>
    <path style="stroke-linecap: round; stroke-miterlimit: 6;" fill="none" stroke="#000000" d="M25,79.5L25,100" stroke-width="2" stroke-linecap="round" stroke-miterlimit="6" transform="matrix(0,-1,1,0,2325,1425)"/>
    <rect x="16" y="21" width="18" height="58" r="0" rx="0" ry="0" fill="#ffffff" stroke="#000000" stroke-width="2" transform="matrix(0,-1,1,0,2325,1425)"/>
    <text style="font-family: Arial; font-size: 16px; font-weight: bold; text-anchor: middle;" x="0" y="0" text-anchor="middle" stroke="none" fill="#000000" transform="translate(2500,1362.05)">
      <tspan dy="-2.3999999999999995">R2</tspan>
      <tspan dy="19.2" x="0">18 kΩ</tspan>
    </text>
    <path style="stroke-linecap: round; stroke-miterlimit: 6;" fill="none" stroke="#000000" d="M25,20.5L25,0" stroke-width="2" stroke-linecap="round" stroke-miterlimit="6" transform="matrix(0,-1,1,0,2450,1425)"/>
    <path style="stroke-linecap: round; stroke-miterlimit: 6;" fill="none" stroke="#000000" d="M25,79.5L25,100" stroke-width="2" stroke-linecap="round" stroke-miterlimit="6" transform="matrix(0,-1,1,0,2450,1425)"/>
    <rect x="16" y="21" width="18" height="58" r="0" rx="0" ry="0" fill="#ffffff" stroke="#000000" stroke-width="2" transform="matrix(0,-1,1,0,2450,1425)"/>
    <path style="stroke-linecap: round;" fill="none" stroke="#000000" d="M 2425 1400 L 2450 1400" stroke-width="2" stroke-linecap="round" class="cl_wire"/>
    <path style="stroke-linecap: round;" fill="none" stroke="#000000" d="M 2450 1400 L 2450 1475" stroke-width="2" stroke-linecap="round" class="cl_wire"/>
    <rect x="7" y="7" width="52" height="29" r="5" rx="5" ry="5" fill="#ffffff" stroke="#000000" stroke-width="2" transform="translate(2450,1425)"/>
    <text style="font-family: Arial; font-size: 16px; font-weight: bold; text-anchor: start;" x="12" y="22" text-anchor="start" stroke="none" fill="#000000" transform="translate(2450,1425)">
      <tspan dy="7.2">U-out</tspan>
    </text>
    <rect x="7" y="7" width="42" height="29" r="5" rx="5" ry="5" fill="#ffffff" stroke="#000000" stroke-width="2" transform="matrix(-1,0,0,1,2325,1350)"/>
    <text style="font-family: Arial; font-size: 16px; font-weight: bold; text-anchor: end;" x="12" y="22" text-anchor="end" stroke="none" fill="#000000" transform="translate(2301,1350)">
      <tspan dy="7.2">U-in</tspan>
    </text>
    <path style="stroke-linecap: round; stroke-miterlimit: 6;" fill="none" stroke="#000000" d="M25,20L25,0" stroke-width="2" stroke-linecap="round" stroke-miterlimit="6" transform="matrix(0,-1,1,0,2550,1425)"/>
    <path style="stroke-linecap: round; stroke-linejoin: round; stroke-miterlimit: 6;" fill="#ffffff" stroke="#000000" d="M5,20L25,40L45,20Z" stroke-width="2" stroke-linecap="round" stroke-linejoin="round" stroke-miterlimit="6" transform="matrix(0,-1,1,0,2550,1425)"/>
    <circle cx="2450" cy="1400" r="3" fill="#000000" stroke="#000000"/>
  </g>
</svg>
