<?xml version="1.0" encoding="UTF-8"?><svg xmlns="http://www.w3.org/2000/svg" xmlns:xlink="http://www.w3.org/1999/xlink" fill-opacity="1" color-rendering="auto" color-interpolation="auto" text-rendering="auto" stroke="black" stroke-linecap="square" width="493" stroke-miterlimit="10" shape-rendering="auto" stroke-opacity="1" fill="black" stroke-dasharray="none" font-weight="normal" stroke-width="1" height="244" font-family="'Dialog'" font-style="normal" stroke-linejoin="miter" font-size="12px" stroke-dashoffset="0" image-rendering="auto">
  <!--Generated by ySVG 2.5-->
  <defs id="genericDefs"/>
  <g>
    <g fill="white" text-rendering="geometricPrecision" shape-rendering="geometricPrecision" transform="translate(-365,-196)" stroke="white">
      <rect x="365" width="493" height="244" y="196" clip-path="url(#clipPath2)" stroke="none"/>
    </g>
    <g text-rendering="geometricPrecision" shape-rendering="geometricPrecision" transform="matrix(1.5382,0,0,1.8217,376.0364,57.5077)">
      <g clip-path="url(#clipPath3)">
        <svg xml:space="preserve" opacity="1" writing-mode="lr-tb" stop-color="rgb(0, 0, 0)" shape-rendering="auto" glyph-orientation-horizontal="0deg" color-profile="auto" lighting-color="rgb(255, 255, 255)" color="rgb(0, 0, 0)" font-weight="400" alignment-baseline="auto" font-style="normal" version="1.1" color-interpolation-filters="linearrgb" text-anchor="start" stroke-linecap="butt" color-interpolation="srgb" font-variant="normal" word-spacing="normal" fill-opacity="1" text-rendering="auto" clip-path="none" text-decoration="none" letter-spacing="normal" viewBox="-0.811 -0.063 65 53" glyph-orientation-vertical="auto" display="inline" font-size-adjust="none" overflow="visible" fill="rgb(0, 0, 0)" font-stretch="normal" stroke-dasharray="none" stroke-miterlimit="4" stop-opacity="1" color-rendering="auto" font-size="12" pointer-events="visiblepainted" mask="none" direction="ltr" baseline-shift="baseline" enable-background="new -0.811 -0.063 65 53" fill-rule="nonzero" image-rendering="auto" stroke-dashoffset="0" width="65px" marker-end="none" clip="auto" cursor="auto" stroke="none" filter="none" visibility="visible" kerning="auto" stroke-width="1" font-family="&quot;Arial&quot;,&quot;Helvetica&quot;,sans-serif" flood-opacity="1" clip-rule="nonzero" src="none" height="53px" unicode-bidi="normal" stroke-linejoin="miter" stroke-opacity="1" flood-color="rgb(0, 0, 0)" dominant-baseline="auto" marker-start="none" x="0px" marker-mid="none" y="0px">
<defs>
<linearGradient x1="594.974" gradientUnits="userSpaceOnUse" x2="695" y1="211.6228" y2="350.6228" id="linearGradient1" spreadMethod="reflect">
              <stop stop-opacity="1" stop-color="rgb(232,238,247)" offset="0%"/>
              <stop stop-opacity="1" stop-color="rgb(183,201,227)" offset="100%"/>
            </linearGradient>
            <linearGradient x1="682" gradientUnits="userSpaceOnUse" x2="695" y1="240.4342" y2="321.8114" id="linearGradient2" spreadMethod="reflect">
              <stop stop-opacity="1" stop-color="rgb(232,238,247)" offset="0%"/>
              <stop stop-opacity="1" stop-color="rgb(183,201,227)" offset="100%"/>
            </linearGradient>
            <linearGradient x1="594.974" gradientUnits="userSpaceOnUse" x2="619.934" y1="307.4114" y2="321.8114" id="linearGradient3" spreadMethod="reflect">
              <stop stop-opacity="1" stop-color="rgb(232,238,247)" offset="0%"/>
              <stop stop-opacity="1" stop-color="rgb(183,201,227)" offset="100%"/>
            </linearGradient>
            <linearGradient x1="594.974" gradientUnits="userSpaceOnUse" x2="619.934" y1="240.4342" y2="254.8342" id="linearGradient4" spreadMethod="reflect">
              <stop stop-opacity="1" stop-color="rgb(232,238,247)" offset="0%"/>
              <stop stop-opacity="1" stop-color="rgb(183,201,227)" offset="100%"/>
            </linearGradient>
            <linearGradient x1="625.211" gradientUnits="userSpaceOnUse" x2="664.763" y1="405.1988" y2="424.2068" id="linearGradient5" spreadMethod="reflect">
              <stop stop-opacity="1" stop-color="rgb(232,238,247)" offset="0%"/>
              <stop stop-opacity="1" stop-color="rgb(183,201,227)" offset="100%"/>
            </linearGradient>
            <clipPath clipPathUnits="userSpaceOnUse" id="clipPath1">
              <path d="M0 0 L493 0 L493 244 L0 244 L0 0 Z"/>
            </clipPath>
            <clipPath clipPathUnits="userSpaceOnUse" id="clipPath2">
              <path d="M365 196 L858 196 L858 440 L365 440 L365 196 Z"/>
            </clipPath>
            <clipPath clipPathUnits="userSpaceOnUse" id="clipPath3">
              <path d="M-244.4579 -31.5673 L76.037 -31.5673 L76.037 102.3701 L-244.4579 102.3701 L-244.4579 -31.5673 Z"/>
            </clipPath>
          </defs>
<linearGradient gradientTransform="matrix(1 0 0 1 -195.2002 -770.8008)" x1="220.9624" x2="220.9624" gradientUnits="userSpaceOnUse" y1="824.415" y2="801.0922" id="svg1.SVGID_1_">
	<stop offset="0.0319" style="stop-color:#808080"/>
	<stop offset="0.1229" style="stop-color:#939393"/>
	<stop offset="0.2702" style="stop-color:#ABABAB"/>
	<stop offset="0.4266" style="stop-color:#BCBCBC"/>
	<stop offset="0.5968" style="stop-color:#C6C6C6"/>
	<stop offset="0.8061" style="stop-color:#C9C9C9"/>
</linearGradient>
<path fill="url(#svg1.SVGID_1_)" d="M51.333,51.918c0.195,0.459-0.053,0.836-0.553,0.836H0.58c-0.5,0-0.604-0.272-0.232-0.605  l8.023-7.191c0.373-0.334,1.086-0.605,1.586-0.605h37.255c0.498,0,1.065,0.377,1.265,0.836L51.333,51.918z"/>
<path stroke-linecap="round" fill="none" stroke-linejoin="round" d="  M51.333,51.918c0.195,0.459-0.053,0.836-0.553,0.836H0.58c-0.5,0-0.604-0.272-0.232-0.605l8.023-7.191  c0.373-0.334,1.086-0.605,1.586-0.605h37.255c0.498,0,1.065,0.377,1.265,0.836L51.333,51.918z" stroke="#8D8D8D" stroke-width="0.25" stroke-miterlimit="10"/>
<path fill="#717171" d="M32.117,50.571c0,0.25-0.205,0.454-0.455,0.454H4.024c-0.25,0-0.304-0.139-0.119-0.307l5.638-5.154  c0.184-0.17,0.539-0.309,0.789-0.309h21.332c0.25,0,0.454,0.205,0.454,0.455L32.117,50.571L32.117,50.571z"/>
<path fill="#717171" d="M40.738,50.598c0.086,0.236,0.359,0.428,0.609,0.428h7.465c0.25,0,0.375-0.188,0.279-0.42l-2.049-4.93  c-0.098-0.229-0.379-0.42-0.629-0.42h-7.17c-0.25,0-0.386,0.191-0.301,0.428L40.738,50.598z"/>
<path fill="#717171" d="M32.89,50.571c0,0.25,0.205,0.454,0.455,0.454h6.135c0.25,0,0.382-0.189,0.293-0.426l-0.156-0.409  c-0.089-0.233-0.365-0.421-0.615-0.416l-1.045,0.021c-0.25,0.004-0.509-0.189-0.574-0.432l-0.021-0.082  c-0.065-0.242-0.321-0.439-0.571-0.439h-1.316c-0.25,0-0.444,0.205-0.432,0.453l0.002,0.059c0.016,0.25-0.181,0.455-0.431,0.459  l-1.269,0.021c-0.25,0.006-0.454,0.211-0.454,0.461L32.89,50.571L32.89,50.571z"/>
<path fill="#717171" d="M32.89,47.004c0,0.25,0.205,0.455,0.455,0.455h4.845c0.25,0,0.396-0.195,0.323-0.437l-0.402-1.333  c-0.07-0.238-0.335-0.438-0.585-0.438h-4.181c-0.25,0-0.455,0.205-0.455,0.455V47.004z"/>
<linearGradient gradientTransform="matrix(1 0 0 -1 -488 -1376.627)" x1="535.2017" x2="511.4634" gradientUnits="userSpaceOnUse" y1="-1418.6563" y2="-1418.6563" id="svg1.SVGID_2_">
	<stop offset="0" style="stop-color:#4D4D4D"/>
	<stop offset="1" style="stop-color:#999999"/>
</linearGradient>
<path fill="url(#svg1.SVGID_2_)" d="M47.048,40.514c0,0.965-6.758,1.404-12.371,1.404c-3.889,0-10.914-0.348-11.367-1.267  c0,0.446,0,1.502,0,1.661c0,0.725,4.803,1.234,11.357,1.234c6.554,0,12.381-0.643,12.381-1.361  C47.048,42.028,47.048,40.977,47.048,40.514z"/>
<path fill="#808080" d="M35.179,39.307c6.556,0,11.869,0.584,11.869,1.307c0,0.721-5.313,1.42-11.869,1.42  c-6.701,0-11.869-0.697-11.869-1.42S28.625,39.307,35.179,39.307z"/>
<linearGradient gradientTransform="matrix(1 0 0 -1 -488 -1376.627)" x1="525.7661" x2="520.77" gradientUnits="userSpaceOnUse" y1="-1412.6865" y2="-1412.6865" id="svg1.SVGID_3_">
	<stop offset="0" style="stop-color:#999999"/>
	<stop offset="0.0417" style="stop-color:#8D8D8D"/>
	<stop offset="0.1617" style="stop-color:#717171"/>
	<stop offset="0.2821" style="stop-color:#5D5D5D"/>
	<stop offset="0.4021" style="stop-color:#515151"/>
	<stop offset="0.5212" style="stop-color:#4D4D4D"/>
	<stop offset="0.6202" style="stop-color:#565656"/>
	<stop offset="0.7817" style="stop-color:#6E6E6E"/>
	<stop offset="0.9844" style="stop-color:#969696"/>
	<stop offset="1" style="stop-color:#999999"/>
</linearGradient>
<path fill="url(#svg1.SVGID_3_)" d="M37.734,40.896c0,0-1.477,0.096-2.498,0.096s-2.499-0.096-2.499-0.096v-9.768h4.997V40.896z"/>
<radialGradient gradientTransform="matrix(1.15 0 0 -1 -453.4719 -1376.627)" id="svg1.SVGID_4_" r="24.0778" cx="415.8687" gradientUnits="userSpaceOnUse" cy="-1386.5146">
	<stop offset="0" style="stop-color:#F2F2F2"/>
	<stop offset="1" style="stop-color:#666666"/>
</radialGradient>
<path fill="url(#svg1.SVGID_4_)" d="M9.453,2.122c0-1.1,0.9-2,2-2h48.246c1.1,0,2,0.9,2,2v30.073c0,1.101-0.9,2-2,2H11.453  c-1.1,0-2-0.899-2-2V2.122z"/>
<path stroke-linecap="round" fill="none" stroke-linejoin="round" d="  M9.453,2.122c0-1.1,0.9-2,2-2h48.246c1.1,0,2,0.9,2,2v30.073c0,1.101-0.9,2-2,2H11.453c-1.1,0-2-0.899-2-2V2.122z" stroke="#666666" stroke-width="0.2436" stroke-miterlimit="10"/>
<radialGradient gradientTransform="matrix(1.1935 0 0 -1 -443.5655 -1376.627)" gradientUnits="userSpaceOnUse" r="53.3339" cx="402.1509" id="svg1.SVGID_5_" cy="-1378.3662" fx="444.1083" fy="-1385.5538">
	<stop offset="0" style="stop-color:#4D4D4D"/>
	<stop offset="1" style="stop-color:#999999"/>
</radialGradient>
<path fill="url(#svg1.SVGID_5_)" d="M10.475,3.143c0-1.1,0.9-2,2-2h46.429c1.1,0,2,0.9,2,2v27.805c0,1.1-0.9,2-2,2H12.475  c-1.1,0-2-0.9-2-2V3.143z"/>
<radialGradient gradientTransform="matrix(1.1923 0 0 -1 -443.8286 -1376.627)" id="svg1.SVGID_6_" r="34.1874" cx="402.939" gradientUnits="userSpaceOnUse" cy="-1378.4502">
	<stop offset="0" style="stop-color:#9CD7FF"/>
	<stop offset="1" style="stop-color:#3C89C9"/>
</radialGradient>
<path fill="url(#svg1.SVGID_6_)" d="M11.043,3.598c0-1.1,0.9-2,2-2h45.294c1.1,0,2,0.9,2,2v26.895c0,1.1-0.9,2-2,2H13.043  c-1.1,0-2-0.9-2-2V3.598z"/>
<path fill="#F2F2F2" opacity="0.24" d="M11.043,24.936V3.598c0-1.1,0.9-2,2-2h45.294c1.1,0,2,0.9,2,2v13.539l-23.164,4.94  c-1.064,0.273-2.836,0.547-3.935,0.609L11.043,24.936z"/>
<path fill="#C9C9C9" d="M58.777,46.596c-0.003-0.002-0.005-0.002-0.007,0c-0.188-0.061-0.429-0.254-0.702-0.482  C58.335,46.268,58.578,46.436,58.777,46.596z"/>
<radialGradient gradientTransform="matrix(1 0 0 1 -390.4004 -1211.6016)" id="svg1.SVGID_7_" r="6.3766" cx="450.8638" gradientUnits="userSpaceOnUse" cy="1259.1514">
	<stop offset="0.1939" style="stop-color:#C9C9C9"/>
	<stop offset="0.3299" style="stop-color:#C6C6C6"/>
	<stop offset="0.4405" style="stop-color:#BCBCBC"/>
	<stop offset="0.5421" style="stop-color:#ABABAB"/>
	<stop offset="0.6378" style="stop-color:#939393"/>
	<stop offset="0.697" style="stop-color:#808080"/>
</radialGradient>
<path fill="url(#svg1.SVGID_7_)" d="M58.77,46.596c0.005,0.002,0.007,0.002,0.009,0.002c0.002,0.004,0.006,0.004,0.006,0.004  c0.084,0.023,0.153,0.021,0.213-0.021c0.017-0.008,0.026-0.021,0.037-0.041c0.604-0.119,1.329-0.154,2.197-0.086  c2.032,1.545,3.77,4.625,1.18,5.801c-2.048,0.929-3.543,0.783-4.722-0.485c-0.624-0.675-1.239-1.47-1.729-2.265  C56.226,48.369,56.855,47.061,58.77,46.596z"/>
<radialGradient gradientTransform="matrix(0.9761 0.2173 -0.1478 0.6641 -320.0412 -1031.1759)" id="svg1.SVGID_8_" r="3.8245" cx="603.5698" gradientUnits="userSpaceOnUse" cy="1426.6348">
	<stop offset="0.1939" style="stop-color:#C9C9C9"/>
	<stop offset="0.3739" style="stop-color:#C6C6C6"/>
	<stop offset="0.5203" style="stop-color:#BCBCBC"/>
	<stop offset="0.6549" style="stop-color:#ABABAB"/>
	<stop offset="0.7816" style="stop-color:#939494"/>
	<stop offset="0.8364" style="stop-color:#868787"/>
</radialGradient>
<path fill="url(#svg1.SVGID_8_)" d="M55.96,49.504c-0.893-1.438-1.355-2.869-0.664-3.533c0.244-0.236,0.539-0.422,0.863-0.559  c0.6,0.051,1.307,0.346,1.9,0.691c0.002,0,0.005,0.004,0.007,0.006c0.272,0.229,0.519,0.426,0.702,0.482  C56.855,47.061,56.226,48.369,55.96,49.504z"/>
<radialGradient gradientTransform="matrix(1 0 0 1 -390.4004 -1211.6016)" id="svg1.SVGID_9_" r="3.928" cx="448.7241" gradientUnits="userSpaceOnUse" cy="1259.3271">
	<stop offset="0.1939" style="stop-color:#C9C9C9"/>
	<stop offset="0.3496" style="stop-color:#C6C6C6"/>
	<stop offset="0.4761" style="stop-color:#BCBCBC"/>
	<stop offset="0.5925" style="stop-color:#ABABAB"/>
	<stop offset="0.702" style="stop-color:#939393"/>
	<stop offset="0.7697" style="stop-color:#808080"/>
</radialGradient>
<path fill="url(#svg1.SVGID_9_)" d="M56.16,45.414c1.353-0.564,3.287-0.266,4.963,0.955c0.035,0.025,0.073,0.055,0.109,0.084  c-0.867-0.068-1.818-0.033-2.427,0.086c-0.109-0.105-0.763-0.449-0.744-0.434C57.464,45.758,56.757,45.463,56.16,45.414z"/>
<path fill="none" stroke-width="0.1136" d="M56.16,45.414  c1.353-0.564,3.287-0.266,4.963,0.955c0.035,0.025,0.073,0.055,0.109,0.084c2.032,1.545,3.77,4.627,1.18,5.801  c-2.048,0.93-3.543,0.785-4.722-0.484c-0.624-0.676-1.239-1.471-1.729-2.264c-0.892-1.438-1.354-2.871-0.664-3.533  C55.541,45.734,55.835,45.549,56.16,45.414z" stroke-miterlimit="10" stroke="#717171" stroke-linecap="round"/>
<path fill="none" stroke-width="0.1136" d="M58.777,46.596  c0.083-0.021,0.168-0.041,0.258-0.057c0.604-0.119,1.329-0.154,2.197-0.086" stroke-miterlimit="10" stroke="#717171" stroke-linecap="round"/>
<path fill="none" stroke-width="0.1136" d="M55.958,49.516  c0-0.002,0.002-0.008,0.002-0.012c0.269-1.135,0.896-2.441,2.813-2.908" stroke-miterlimit="10" stroke="#717171" stroke-linecap="round"/>
<path fill="none" stroke-width="0.1136" d="M58.061,46.105  c-0.597-0.35-1.306-0.643-1.901-0.693" stroke-miterlimit="10" stroke="#717171" stroke-linecap="round"/>
<path fill="none" stroke-width="0.1136" d="M58.779,46.598  c0-0.002,0-0.002-0.002-0.002c-0.199-0.16-0.441-0.328-0.709-0.482" stroke-miterlimit="10" stroke="#717171" stroke-linecap="round"/>
<path fill="#4D4D4D" d="M58.259,45.936c0.354,0.264,0.438,0.48,0.548,0.604c-0.091,0.018-0.173,0.033-0.259,0.059  c-0.355-0.393-0.996-0.666-0.955-0.727C57.688,45.729,58.063,45.791,58.259,45.936z"/>
</svg>
      </g>
    </g>
    <g fill="url(#linearGradient1)" text-rendering="geometricPrecision" shape-rendering="geometricPrecision" transform="matrix(1,0,0,1,-365,-196)" stroke="url(#linearGradient1)">
      <path d="M594.974 211.6228 L695 211.6228 L695 350.6228 L594.974 350.6228 Z" stroke="none" clip-path="url(#clipPath2)"/>
    </g>
    <g text-rendering="geometricPrecision" stroke-miterlimit="1.45" shape-rendering="geometricPrecision" transform="matrix(1,0,0,1,-365,-196)" stroke-linecap="butt">
      <path fill="none" d="M594.974 211.6228 L695 211.6228 L695 350.6228 L594.974 350.6228 Z" clip-path="url(#clipPath2)"/>
      <text x="618.6491" xml:space="preserve" y="285.8367" clip-path="url(#clipPath2)" font-family="sans-serif" stroke="none">Discovery</text>
    </g>
    <g fill="url(#linearGradient2)" text-rendering="geometricPrecision" shape-rendering="geometricPrecision" transform="matrix(1,0,0,1,-365,-196)" stroke="url(#linearGradient2)">
      <path d="M682 240.4342 L695 240.4342 L695 321.8114 L682 321.8114 Z" stroke="none" clip-path="url(#clipPath2)"/>
    </g>
    <g text-rendering="geometricPrecision" stroke-miterlimit="1.45" shape-rendering="geometricPrecision" transform="matrix(1,0,0,1,-365,-196)" stroke-linecap="butt">
      <path fill="none" d="M682 240.4342 L695 240.4342 L695 321.8114 L682 321.8114 Z" clip-path="url(#clipPath2)"/>
      <text x="684.167" xml:space="preserve" y="256.4343" clip-path="url(#clipPath2)" font-family="sans-serif" stroke="none">U</text>
      <text x="684.498" xml:space="preserve" y="271.1355" clip-path="url(#clipPath2)" font-family="sans-serif" stroke="none">S</text>
      <text x="684.498" xml:space="preserve" y="285.8367" clip-path="url(#clipPath2)" font-family="sans-serif" stroke="none">A</text>
      <text x="684.167" xml:space="preserve" y="300.5378" clip-path="url(#clipPath2)" font-family="sans-serif" stroke="none">R</text>
      <text x="684.835" xml:space="preserve" y="315.239" clip-path="url(#clipPath2)" font-family="sans-serif" stroke="none">T</text>
    </g>
    <g fill="url(#linearGradient3)" text-rendering="geometricPrecision" shape-rendering="geometricPrecision" transform="matrix(1,0,0,1,-365,-196)" stroke="url(#linearGradient3)">
      <path d="M594.974 307.4114 L619.934 307.4114 L619.934 321.8114 L594.974 321.8114 Z" stroke="none" clip-path="url(#clipPath2)"/>
    </g>
    <g text-rendering="geometricPrecision" stroke-miterlimit="1.45" shape-rendering="geometricPrecision" transform="matrix(1,0,0,1,-365,-196)" stroke-linecap="butt">
      <path fill="none" d="M594.974 307.4114 L619.934 307.4114 L619.934 321.8114 L594.974 321.8114 Z" clip-path="url(#clipPath2)"/>
      <text x="599.119" xml:space="preserve" y="319.3253" clip-path="url(#clipPath2)" font-family="sans-serif" stroke="none">DA</text>
    </g>
    <g fill="url(#linearGradient4)" text-rendering="geometricPrecision" shape-rendering="geometricPrecision" transform="matrix(1,0,0,1,-365,-196)" stroke="url(#linearGradient4)">
      <path d="M594.974 240.4342 L619.934 240.4342 L619.934 254.8342 L594.974 254.8342 Z" stroke="none" clip-path="url(#clipPath2)"/>
    </g>
    <g text-rendering="geometricPrecision" stroke-miterlimit="1.45" shape-rendering="geometricPrecision" transform="matrix(1,0,0,1,-365,-196)" stroke-linecap="butt">
      <path fill="none" d="M594.974 240.4342 L619.934 240.4342 L619.934 254.8342 L594.974 254.8342 Z" clip-path="url(#clipPath2)"/>
      <text x="599.119" xml:space="preserve" y="252.3481" clip-path="url(#clipPath2)" font-family="sans-serif" stroke="none">AD</text>
    </g>
    <g fill="rgb(153,204,255)" text-rendering="geometricPrecision" shape-rendering="geometricPrecision" transform="matrix(1,0,0,1,-365,-196)" stroke="rgb(153,204,255)">
      <rect x="478.654" y="232.6342" clip-path="url(#clipPath2)" width="86.32" rx="4" ry="4" height="30" stroke="none"/>
    </g>
    <g text-rendering="geometricPrecision" stroke-miterlimit="1.45" shape-rendering="geometricPrecision" font-family="sans-serif" transform="matrix(1,0,0,1,-365,-196)" stroke-linecap="butt">
      <text x="487.7945" xml:space="preserve" y="252.3481" clip-path="url(#clipPath2)" stroke="none">Lågpassfilter</text>
      <rect x="478.654" y="232.6342" clip-path="url(#clipPath2)" fill="none" width="86.32" rx="4" ry="4" height="30"/>
    </g>
    <g fill="rgb(153,204,255)" text-rendering="geometricPrecision" shape-rendering="geometricPrecision" transform="matrix(1,0,0,1,-365,-196)" stroke="rgb(153,204,255)">
      <rect x="478.654" y="299.6114" clip-path="url(#clipPath2)" width="86.32" rx="4" ry="4" height="30" stroke="none"/>
    </g>
    <g text-rendering="geometricPrecision" stroke-miterlimit="1.45" shape-rendering="geometricPrecision" font-family="sans-serif" transform="matrix(1,0,0,1,-365,-196)" stroke-linecap="butt">
      <text x="481.7945" xml:space="preserve" y="319.3253" clip-path="url(#clipPath2)" stroke="none">Smoothingfilter</text>
      <rect x="478.654" y="299.6114" clip-path="url(#clipPath2)" fill="none" width="86.32" rx="4" ry="4" height="30"/>
    </g>
    <g fill="rgb(255,204,0)" text-rendering="geometricPrecision" shape-rendering="geometricPrecision" transform="matrix(1,0,0,1,-365,-196)" stroke="rgb(255,204,0)">
      <rect x="381.6" width="75.056" height="30" y="232.6342" clip-path="url(#clipPath2)" stroke="none"/>
    </g>
    <g text-rendering="geometricPrecision" stroke-miterlimit="1.45" shape-rendering="geometricPrecision" font-family="sans-serif" transform="matrix(1,0,0,1,-365,-196)" stroke-linecap="butt">
      <text x="385.7676" xml:space="preserve" y="252.3481" clip-path="url(#clipPath2)" stroke="none">Analog input</text>
      <rect fill="none" x="381.6" width="75.056" height="30" y="232.6342" clip-path="url(#clipPath2)"/>
    </g>
    <g fill="rgb(255,204,0)" text-rendering="geometricPrecision" shape-rendering="geometricPrecision" transform="matrix(1,0,0,1,-365,-196)" stroke="rgb(255,204,0)">
      <rect x="381.6" width="75.056" height="30" y="299.6114" clip-path="url(#clipPath2)" stroke="none"/>
    </g>
    <g text-rendering="geometricPrecision" stroke-miterlimit="1.45" shape-rendering="geometricPrecision" font-family="sans-serif" transform="matrix(1,0,0,1,-365,-196)" stroke-linecap="butt">
      <text x="382.0967" xml:space="preserve" y="319.3253" clip-path="url(#clipPath2)" stroke="none">Analog output</text>
      <rect fill="none" x="381.6" width="75.056" height="30" y="299.6114" clip-path="url(#clipPath2)"/>
    </g>
    <g fill="url(#linearGradient5)" text-rendering="geometricPrecision" shape-rendering="geometricPrecision" transform="matrix(1,0,0,1,-365,-196)" stroke="url(#linearGradient5)">
      <path d="M625.211 405.1988 L664.763 405.1988 L664.763 424.2068 L625.211 424.2068 Z" stroke="none" clip-path="url(#clipPath2)"/>
    </g>
    <g text-rendering="geometricPrecision" stroke-miterlimit="1.45" shape-rendering="geometricPrecision" transform="matrix(1,0,0,1,-365,-196)" stroke-linecap="butt">
      <path fill="none" d="M625.211 405.1988 L664.763 405.1988 L664.763 424.2068 L625.211 424.2068 Z" clip-path="url(#clipPath2)"/>
      <text x="637.6481" xml:space="preserve" y="419.4167" clip-path="url(#clipPath2)" font-family="sans-serif" stroke="none">5V</text>
    </g>
    <g text-rendering="geometricPrecision" stroke-miterlimit="1.45" shape-rendering="geometricPrecision" transform="matrix(1,0,0,1,-365,-196)" stroke-linecap="butt">
      <path fill="none" d="M694.9933 281.1228 L746.5575 281.1228" clip-path="url(#clipPath2)"/>
      <path d="M754.5575 281.1228 L742.5575 276.1228 L745.5575 281.1228 L742.5575 286.1228 Z" clip-path="url(#clipPath2)" stroke="none"/>
      <path fill="none" d="M754.5146 302.1228 L703.024 302.1228" clip-path="url(#clipPath2)"/>
      <path d="M695.024 302.1228 L707.024 307.1228 L704.024 302.1228 L707.024 297.1228 Z" clip-path="url(#clipPath2)" stroke="none"/>
      <path fill="none" d="M565.0104 247.6342 L586.9779 247.6342" clip-path="url(#clipPath2)"/>
      <path d="M594.9779 247.6342 L582.9779 242.6342 L585.9779 247.6342 L582.9779 252.6342 Z" clip-path="url(#clipPath2)" stroke="none"/>
      <path fill="none" d="M594.9509 314.6114 L572.9891 314.6114" clip-path="url(#clipPath2)"/>
      <path d="M564.9891 314.6114 L576.9891 319.6114 L573.9891 314.6114 L576.9891 309.6114 Z" clip-path="url(#clipPath2)" stroke="none"/>
      <path fill="none" d="M456.656 247.6342 L470.6405 247.6342" clip-path="url(#clipPath2)"/>
      <path d="M478.6405 247.6342 L466.6405 242.6342 L469.6405 247.6342 L466.6405 252.6342 Z" clip-path="url(#clipPath2)" stroke="none"/>
      <path fill="none" d="M478.6688 314.6114 L464.656 314.6114" clip-path="url(#clipPath2)"/>
      <path d="M456.656 314.6114 L468.656 319.6114 L465.656 314.6114 L468.656 309.6114 Z" clip-path="url(#clipPath2)" stroke="none"/>
      <path fill="none" stroke-dasharray="6,2" d="M644.987 405.2126 L644.987 365.6507" clip-path="url(#clipPath2)"/>
      <path fill="white" stroke-dasharray="6,2" d="M644.987 350.6507 L638.987 366.6507 L650.987 366.6507 Z" clip-path="url(#clipPath2)" stroke="none"/>
      <path fill="none" d="M644.987 350.6507 L638.987 366.6507 L650.987 366.6507 Z" clip-path="url(#clipPath2)"/>
    </g>
  </g>
</svg>
