<svg xmlns:xlink="http://www.w3.org/1999/xlink" xmlns="http://www.w3.org/2000/svg" width="1000.0" height="738.900862069">
  <desc>Created by CircuitLab https://www.circuitlab.com/</desc><g transform="matrix(2.15517241379,0,0,2.15517241379,-4894.39655173,-2743.85775862)">
    <path style="stroke-linejoin: round;" fill="#000000" stroke="#000000" d="M0,50L12,36L35.66666666666667,36Z" stroke-width="2" stroke-linejoin="round" transform="matrix(-1,0,0,1,2350,1350)"/>
    <path style="stroke-linejoin: round;" fill="#000000" stroke="#000000" d="M0,50L12,36L26,36Z" stroke-width="2" stroke-linejoin="round" transform="matrix(-1,0,0,1,2350,1400)"/>
    <path style="stroke-linejoin: round;" fill="#000000" stroke="#000000" d="M0,50L12,36L29.333333333333332,36Z" stroke-width="2" stroke-linejoin="round" transform="translate(2675,1375)"/>
    <text style="font-family: Arial; font-size: 16px; font-weight: bold; text-anchor: middle;" x="0" y="0" text-anchor="middle" stroke="none" fill="#000000" transform="translate(2400,1362.05)">
      <tspan dy="-2.3999999999999995">R1</tspan>
      <tspan dy="19.2" x="0">15 k立</tspan>
    </text>
    <path style="stroke-linecap: round; stroke-miterlimit: 6;" fill="none" stroke="#000000" d="M25,20.5L25,0" stroke-width="2" stroke-linecap="round" stroke-miterlimit="6" transform="matrix(0,-1,-1,0,2450,1425)"/>
    <path style="stroke-linecap: round; stroke-miterlimit: 6;" fill="none" stroke="#000000" d="M25,79.5L25,100" stroke-width="2" stroke-linecap="round" stroke-miterlimit="6" transform="matrix(0,-1,-1,0,2450,1425)"/>
    <rect x="16" y="21" width="18" height="58" r="0" rx="0" ry="0" fill="#ffffff" stroke="#000000" stroke-width="2" transform="matrix(0,-1,-1,0,2450,1425)"/>
    <text style="font-family: Arial; font-size: 16px; font-weight: bold; text-anchor: middle;" x="0" y="0" text-anchor="middle" stroke="none" fill="#000000" transform="translate(2400,1487.95)">
      <tspan dy="-2.3999999999999995">R2</tspan>
      <tspan dy="19.2" x="0">12 k立</tspan>
    </text>
    <path style="stroke-linecap: round; stroke-miterlimit: 6;" fill="none" stroke="#000000" d="M25,20.5L25,0" stroke-width="2" stroke-linecap="round" stroke-miterlimit="6" transform="matrix(0,1,-1,0,2450,1425)"/>
    <path style="stroke-linecap: round; stroke-miterlimit: 6;" fill="none" stroke="#000000" d="M25,79.5L25,100" stroke-width="2" stroke-linecap="round" stroke-miterlimit="6" transform="matrix(0,1,-1,0,2450,1425)"/>
    <rect x="16" y="21" width="18" height="58" r="0" rx="0" ry="0" fill="#ffffff" stroke="#000000" stroke-width="2" transform="matrix(0,1,-1,0,2450,1425)"/>
    <path style="stroke-linecap: round; stroke-miterlimit: 6;" fill="#ffffff" stroke="#000000" d="M137.5,75L12.5,12.5L12.5,137.5L137.5,75Z" stroke-width="2" stroke-linecap="round" stroke-miterlimit="6" transform="translate(2500,1350)"/>
    <path fill="#000000" stroke="none" d="M20.241317,49.30424L20.241317,51.00004L36.397536,51.00004L36.397536,49.30424L20.241317,49.30424" transform="translate(2500,1350)"/>
    <path fill="#000000" stroke="none" d="M29.136487,91.78334L27.440701,91.78334L27.440701,99.15232L20.133404,99.15232L20.133404,100.84812L27.440701,100.84812L27.440701,108.21702L29.136487,108.21702L29.136487,100.84812L36.443785,100.84812L36.443785,99.15232L29.136487,99.15232L29.136487,91.78334" transform="translate(2500,1350)"/>
    <path style="stroke-linecap: round; stroke-miterlimit: 6;" fill="none" stroke="#000000" d="M150,75L137.5,75" stroke-width="2" stroke-linecap="round" stroke-miterlimit="6" transform="translate(2500,1350)"/>
    <path style="stroke-linecap: round; stroke-miterlimit: 6;" fill="none" stroke="#000000" d="M0,100L12.5,100" stroke-width="2" stroke-linecap="round" stroke-miterlimit="6" transform="translate(2500,1350)"/>
    <path style="stroke-linecap: round; stroke-miterlimit: 6;" fill="none" stroke="#000000" d="M12.5,50L0,50" stroke-width="2" stroke-linecap="round" stroke-miterlimit="6" transform="translate(2500,1350)"/>
    <text style="font-family: Arial; font-size: 16px; font-weight: bold; text-anchor: start;" x="0" y="0" text-anchor="start" stroke="none" fill="#000000" transform="translate(2537.5,1425)">
      <tspan dy="-2.3999999999999995">OA1</tspan>
      <tspan dy="19.2" x="0">AD712</tspan>
    </text>
    <path style="stroke-linecap: round;" fill="none" stroke="#000000" d="M 2450 1400 L 2500 1400" stroke-width="2" stroke-linecap="round" class="cl_wire"/>
    <path style="stroke-linecap: round;" fill="none" stroke="#000000" d="M 2450 1450 L 2500 1450" stroke-width="2" stroke-linecap="round" class="cl_wire"/>
    <text style="font-family: Arial; font-size: 16px; font-weight: bold; text-anchor: middle;" x="0" y="0" text-anchor="middle" stroke="none" fill="#000000" transform="translate(2550,1287.05)">
      <tspan dy="-2.3999999999999995">R3</tspan>
      <tspan dy="19.2" x="0">15 k立</tspan>
    </text>
    <path style="stroke-linecap: round; stroke-miterlimit: 6;" fill="none" stroke="#000000" d="M25,20.5L25,0" stroke-width="2" stroke-linecap="round" stroke-miterlimit="6" transform="matrix(0,-1,1,0,2500,1350)"/>
    <path style="stroke-linecap: round; stroke-miterlimit: 6;" fill="none" stroke="#000000" d="M25,79.5L25,100" stroke-width="2" stroke-linecap="round" stroke-miterlimit="6" transform="matrix(0,-1,1,0,2500,1350)"/>
    <rect x="16" y="21" width="18" height="58" r="0" rx="0" ry="0" fill="#ffffff" stroke="#000000" stroke-width="2" transform="matrix(0,-1,1,0,2500,1350)"/>
    <path style="stroke-linecap: round;" fill="none" stroke="#000000" d="M 2500 1325 L 2500 1400" stroke-width="2" stroke-linecap="round" class="cl_wire"/>
    <path style="stroke-linecap: round;" fill="none" stroke="#000000" d="M 2650 1425 L 2675 1425" stroke-width="2" stroke-linecap="round" class="cl_wire"/>
    <path style="stroke-linecap: round;" fill="none" stroke="#000000" d="M 2600 1325 L 2650 1325" stroke-width="2" stroke-linecap="round" class="cl_wire"/>
    <path style="stroke-linecap: round;" fill="none" stroke="#000000" d="M 2650 1325 L 2650 1425" stroke-width="2" stroke-linecap="round" class="cl_wire"/>
    <text style="font-family: Arial; font-size: 16px; font-weight: bold; text-anchor: start;" x="0" y="0" text-anchor="start" stroke="none" fill="#000000" transform="translate(2493.75,1525)">
      <tspan dy="-2.3999999999999995">R4</tspan>
      <tspan dy="19.2" x="0">12 k立</tspan>
    </text>
    <path style="stroke-linecap: round; stroke-miterlimit: 6;" fill="none" stroke="#000000" d="M25,20.5L25,0" stroke-width="2" stroke-linecap="round" stroke-miterlimit="6" transform="translate(2450,1475)"/>
    <path style="stroke-linecap: round; stroke-miterlimit: 6;" fill="none" stroke="#000000" d="M25,79.5L25,100" stroke-width="2" stroke-linecap="round" stroke-miterlimit="6" transform="translate(2450,1475)"/>
    <rect x="16" y="21" width="18" height="58" r="0" rx="0" ry="0" fill="#ffffff" stroke="#000000" stroke-width="2" transform="translate(2450,1475)"/>
    <path style="stroke-linecap: round; stroke-miterlimit: 6;" fill="none" stroke="#000000" d="M25,20L25,0" stroke-width="2" stroke-linecap="round" stroke-miterlimit="6" transform="translate(2450,1575)"/>
    <path style="stroke-linecap: round; stroke-linejoin: round; stroke-miterlimit: 6;" fill="#ffffff" stroke="#000000" d="M5,20L25,40L45,20Z" stroke-width="2" stroke-linecap="round" stroke-linejoin="round" stroke-miterlimit="6" transform="translate(2450,1575)"/>
    <rect x="7" y="7" width="52" height="29" r="5" rx="5" ry="5" fill="#ffffff" stroke="#000000" stroke-width="2" transform="translate(2675,1375)"/>
    <text style="font-family: Arial; font-size: 16px; font-weight: bold; text-anchor: start;" x="12" y="22" text-anchor="start" stroke="none" fill="#000000" transform="translate(2675,1375)">
      <tspan dy="7.2">U-out</tspan>
    </text>
    <rect x="7" y="7" width="42" height="29" r="5" rx="5" ry="5" fill="#ffffff" stroke="#000000" stroke-width="2" transform="matrix(-1,0,0,1,2350,1400)"/>
    <text style="font-family: Arial; font-size: 16px; font-weight: bold; text-anchor: end;" x="12" y="22" text-anchor="end" stroke="none" fill="#000000" transform="translate(2326,1400)">
      <tspan dy="7.2">U-in</tspan>
    </text>
    <rect x="7" y="7" width="71" height="29" r="5" rx="5" ry="5" fill="#ffffff" stroke="#000000" stroke-width="2" transform="matrix(-1,0,0,1,2350,1350)"/>
    <text style="font-family: Arial; font-size: 16px; font-weight: bold; text-anchor: end;" x="12" y="22" text-anchor="end" stroke="none" fill="#000000" transform="translate(2326,1350)">
      <tspan dy="7.2">U-offset</tspan>
    </text>
    <path style="stroke-linecap: round;" fill="none" stroke="#000000" d="M 2475 1450 L 2475 1475" stroke-width="2" stroke-linecap="round" class="cl_wire"/>
    <circle cx="2500" cy="1400" r="3" fill="#000000" stroke="#000000"/>
    <circle cx="2650" cy="1425" r="3" fill="#000000" stroke="#000000"/>
    <circle cx="2475" cy="1450" r="3" fill="#000000" stroke="#000000"/>
  </g>
</svg>
